Coordinates
version=1
nRows=7
nColumns=46
inDegrees=yes

Units are S.I. units (second, meters, Newtons, ...)
Angles are in degrees.

endheader
time	pelvis_tilt	pelvis_list	pelvis_rotation	pelvis_tx	pelvis_ty	pelvis_tz	bb_angle	bb_tx	bb_ty	bb_tz	hip_flexion_r	hip_adduction_r	hip_rotation_r	knee_angle_r	knee_angle_r_beta	ankle_angle_r	subtalar_angle_r	mtp_angle_r	crank_angle_r	hip_flexion_l	hip_adduction_l	hip_rotation_l	knee_angle_l	knee_angle_l_beta	ankle_angle_l	subtalar_angle_l	mtp_angle_l	crank_angle_l	lumbar_extension	lumbar_bending	lumbar_rotation	arm_flex_r	arm_add_r	arm_rot_r	elbow_flex_r	pro_sup_r	wrist_flex_r	wrist_dev_r	arm_flex_l	arm_add_l	arm_rot_l	elbow_flex_l	pro_sup_l	wrist_flex_l	wrist_dev_l
      0.00000000	    -28.82529005	    -32.49740562	     -1.57326497	      0.11101500	      1.00892066	     -0.27028800	      0.00000000	      0.50000000	      0.00000000	      0.25000000	     63.49793164	     21.18806322	    -21.17438533	     56.17689313	      0.98047175	     13.98277951	    -18.50196132	      0.00000000	      0.00000000	    119.98534275	      1.68577557	     39.96703601	    113.92628438	      1.98838877	     24.42227011	      3.86620508	      0.00000000	      0.00000000	    -33.50814527	     31.30559372	     11.91719089	     83.46806519	     -7.55625339	     61.30417905	     34.32797282	     41.13615824	      0.00000000	      0.00000000	     66.20374380	    -20.39633572	     26.68971802	     51.24633677	     42.64642246	      0.00000000	      0.00000000
      0.00500000	    -28.82736966	    -32.50033993	     -1.57942852	      0.11102605	      1.00892205	     -0.27032357	      0.00000000	      0.50000000	      0.00000000	      0.25000000	     63.49884647	     21.19081877	    -21.17219933	     56.18105914	      0.98054446	     13.98899120	    -18.50166347	      0.00000000	      0.00000000	    119.98535908	      1.68401839	     39.96707895	    113.92564298	      1.98837757	     24.41804995	      3.85804269	      0.00000000	      0.00000000	    -33.50812285	     31.31510108	     11.92400702	     83.46366255	     -7.54996267	     61.30347027	     34.32946616	     41.14061178	      0.00000000	      0.00000000	     66.20536492	    -20.39713946	     26.69040141	     51.24167220	     42.65344249	      0.00000000	      0.00000000
      0.01000000	    -28.82993020	    -32.50680016	     -1.58520430	      0.11103715	      1.00892287	     -0.27032305	      0.00000000	      0.50000000	      0.00000000	      0.25000000	     63.50031324	     21.20280430	    -21.17453196	     56.18549853	      0.98062194	     13.99280599	    -18.49993673	      0.00000000	      0.00000000	    119.98533116	      1.68494164	     39.96706684	    113.92324271	      1.98833568	     24.41696381	      3.84978254	      0.00000000	      0.00000000	    -33.52019470	     31.31227030	     11.91872955	     83.46309487	     -7.54821803	     61.30184964	     34.32967605	     41.14353538	      0.00000000	      0.00000000	     66.20382794	    -20.39295149	     26.69276673	     51.23827825	     42.65869143	      0.00000000	      0.00000000
      0.01500000	    -28.83875315	    -32.51695352	     -1.58578894	      0.11105379	      1.00892265	     -0.27038659	      0.00000000	      0.50000000	      0.00000000	      0.25000000	     63.48555910	     21.20817705	    -21.15566972	     56.15247810	      0.98004563	     14.01545251	    -18.49421969	      0.00000000	      0.00000000	    119.98537055	      1.69258678	     39.96702618	    113.91343327	      1.98816447	     24.41364858	      3.84306410	      0.00000000	      0.00000000	    -33.50765598	     31.33613836	     11.92241678	     83.46331845	     -7.53919892	     61.30044276	     34.33336701	     41.14873612	      0.00000000	      0.00000000	     66.20766206	    -20.38570604	     26.69254072	     51.23300760	     42.66646182	      0.00000000	      0.00000000
      0.02000000	    -28.85625757	    -32.52225203	     -1.58347122	      0.11105796	      1.00896015	     -0.27044777	      0.00000000	      0.50000000	      0.00000000	      0.25000000	     63.48814858	     21.21322066	    -21.14795166	     56.13056930	      0.97966325	     14.02190301	    -18.47629988	      0.00000000	      0.00000000	    119.98537293	      1.71313988	     39.96706801	    113.89512686	      1.98784497	     24.40756055	      3.83603318	      0.00000000	      0.00000000	    -33.50117246	     31.35757971	     11.92774432	     83.46403760	     -7.53719375	     61.29852221	     34.33473552	     41.15411815	      0.00000000	      0.00000000	     66.20841568	    -20.38156952	     26.68961693	     51.22594460	     42.67475207	      0.00000000	      0.00000000
      0.02500000	    -28.85613499	    -32.53760214	     -1.58641650	      0.11103877	      1.00897141	     -0.27045482	      0.00000000	      0.50000000	      0.00000000	      0.25000000	     63.49192375	     21.23000367	    -21.15698711	     56.12525024	      0.97957041	     14.02201710	    -18.46467500	      0.00000000	      0.00000000	    119.98533924	      1.71682442	     39.96707642	    113.89399369	      1.98782519	     24.40577969	      3.82800917	      0.00000000	      0.00000000	    -33.51401156	     31.35669916	     11.91236300	     83.46382241	     -7.53851568	     61.29686355	     34.33437888	     41.15697687	      0.00000000	      0.00000000	     66.20578591	    -20.37333384	     26.68987200	     51.22154748	     42.67965094	      0.00000000	      0.00000000
      0.03000000	    -28.86761153	    -32.53907142	     -1.58736880	      0.11104891	      1.00899365	     -0.27048455	      0.00000000	      0.50000000	      0.00000000	      0.25000000	     63.49712897	     21.22045068	    -21.16336622	     56.12025969	      0.97948331	     14.02287401	    -18.45150445	      0.00000000	      0.00000000	    119.98536412	      1.72459639	     39.96712608	    113.88352151	      1.98764241	     24.40206193	      3.81562215	      0.00000000	      0.00000000	    -33.50424116	     31.36921625	     11.92271570	     83.46598190	     -7.53535452	     61.29528831	     34.33667369	     41.16174526	      0.00000000	      0.00000000	     66.20667682	    -20.37048841	     26.68474051	     51.21598874	     42.68654497	      0.00000000	      0.00000000
